{
	"patcher" : 	{
		"fileversion" : 1,
		"appversion" : 		{
			"major" : 7,
			"minor" : 3,
			"revision" : 4,
			"architecture" : "x64",
			"modernui" : 1
		}
,
		"rect" : [ 275.0, -749.0, 1131.0, 672.0 ],
		"bglocked" : 0,
		"openinpresentation" : 0,
		"default_fontsize" : 12.0,
		"default_fontface" : 0,
		"default_fontname" : "Arial",
		"gridonopen" : 1,
		"gridsize" : [ 15.0, 15.0 ],
		"gridsnaponopen" : 1,
		"objectsnaponopen" : 1,
		"statusbarvisible" : 2,
		"toolbarvisible" : 1,
		"lefttoolbarpinned" : 0,
		"toptoolbarpinned" : 0,
		"righttoolbarpinned" : 0,
		"bottomtoolbarpinned" : 0,
		"toolbars_unpinned_last_save" : 0,
		"tallnewobj" : 0,
		"boxanimatetime" : 200,
		"enablehscroll" : 1,
		"enablevscroll" : 1,
		"devicewidth" : 0.0,
		"description" : "",
		"digest" : "",
		"tags" : "",
		"style" : "",
		"subpatcher_template" : "",
		"boxes" : [ 			{
				"box" : 				{
					"id" : "obj-21",
					"maxclass" : "newobj",
					"numinlets" : 2,
					"numoutlets" : 1,
					"outlettype" : [ "bang" ],
					"patching_rect" : [ 79.0, 203.0, 56.0, 22.0 ],
					"style" : "",
					"text" : "delay 10"
				}

			}
, 			{
				"box" : 				{
					"id" : "obj-20",
					"maxclass" : "newobj",
					"numinlets" : 1,
					"numoutlets" : 2,
					"outlettype" : [ "bang", "" ],
					"patching_rect" : [ 79.0, 167.0, 96.0, 22.0 ],
					"style" : "",
					"text" : "t b l"
				}

			}
, 			{
				"box" : 				{
					"id" : "obj-19",
					"maxclass" : "message",
					"numinlets" : 2,
					"numoutlets" : 1,
					"outlettype" : [ "" ],
					"patching_rect" : [ 79.0, 239.0, 96.0, 22.0 ],
					"style" : "",
					"text" : "store 7"
				}

			}
, 			{
				"box" : 				{
					"id" : "obj-6",
					"maxclass" : "message",
					"numinlets" : 2,
					"numoutlets" : 1,
					"outlettype" : [ "" ],
					"patching_rect" : [ 212.0, 160.0, 29.5, 22.0 ],
					"style" : "",
					"text" : "6"
				}

			}
, 			{
				"box" : 				{
					"id" : "obj-2",
					"maxclass" : "newobj",
					"numinlets" : 1,
					"numoutlets" : 1,
					"outlettype" : [ "" ],
					"patcher" : 					{
						"fileversion" : 1,
						"appversion" : 						{
							"major" : 7,
							"minor" : 3,
							"revision" : 4,
							"architecture" : "x64",
							"modernui" : 1
						}
,
						"rect" : [ 835.0, 134.0, 673.0, 627.0 ],
						"bglocked" : 0,
						"openinpresentation" : 0,
						"default_fontsize" : 12.0,
						"default_fontface" : 0,
						"default_fontname" : "Arial",
						"gridonopen" : 1,
						"gridsize" : [ 15.0, 15.0 ],
						"gridsnaponopen" : 1,
						"objectsnaponopen" : 1,
						"statusbarvisible" : 2,
						"toolbarvisible" : 1,
						"lefttoolbarpinned" : 0,
						"toptoolbarpinned" : 0,
						"righttoolbarpinned" : 0,
						"bottomtoolbarpinned" : 0,
						"toolbars_unpinned_last_save" : 0,
						"tallnewobj" : 0,
						"boxanimatetime" : 200,
						"enablehscroll" : 1,
						"enablevscroll" : 1,
						"devicewidth" : 0.0,
						"description" : "",
						"digest" : "",
						"tags" : "",
						"style" : "",
						"subpatcher_template" : "",
						"boxes" : [ 							{
								"box" : 								{
									"fontname" : "Avenir Next Regular",
									"id" : "obj-7",
									"linecount" : 2,
									"maxclass" : "comment",
									"numinlets" : 1,
									"numoutlets" : 0,
									"patching_rect" : [ 503.06543, 206.175049, 160.0, 39.0 ],
									"style" : "",
									"text" : "Lanza el preset al compás que hayamos seleccionado",
									"textcolor" : [ 0.019608, 0.254902, 0.035294, 1.0 ]
								}

							}
, 							{
								"box" : 								{
									"fontname" : "Avenir Next Regular",
									"id" : "obj-6",
									"linecount" : 3,
									"maxclass" : "comment",
									"numinlets" : 1,
									"numoutlets" : 0,
									"patching_rect" : [ 147.94043, 252.675049, 170.0, 56.0 ],
									"style" : "",
									"text" : "Si está en 1  pasa el preset actual, si está en 2 pasa a traves de TempoChange",
									"textcolor" : [ 0.019608, 0.254902, 0.035294, 1.0 ]
								}

							}
, 							{
								"box" : 								{
									"fontname" : "Avenir Next Regular",
									"id" : "obj-5",
									"linecount" : 2,
									"maxclass" : "comment",
									"numinlets" : 1,
									"numoutlets" : 0,
									"patching_rect" : [ 430.880859, 367.826172, 160.0, 39.0 ],
									"style" : "",
									"text" : "Conmuta entre OFF y los diferentes measures",
									"textcolor" : [ 0.019608, 0.254902, 0.035294, 1.0 ]
								}

							}
, 							{
								"box" : 								{
									"fontname" : "Avenir Next Regular",
									"id" : "obj-4",
									"maxclass" : "comment",
									"numinlets" : 1,
									"numoutlets" : 0,
									"patching_rect" : [ 278.982544, 79.5, 160.0, 23.0 ],
									"style" : "",
									"text" : "Recibe Umenu de Measure",
									"textcolor" : [ 0.019608, 0.254902, 0.035294, 1.0 ]
								}

							}
, 							{
								"box" : 								{
									"id" : "obj-2",
									"maxclass" : "newobj",
									"numinlets" : 1,
									"numoutlets" : 2,
									"outlettype" : [ "", "" ],
									"patching_rect" : [ 246.982544, 143.0, 29.5, 22.0 ],
									"style" : "",
									"text" : "t l l"
								}

							}
, 							{
								"box" : 								{
									"id" : "obj-1",
									"maxclass" : "newobj",
									"numinlets" : 0,
									"numoutlets" : 1,
									"outlettype" : [ "" ],
									"patching_rect" : [ 223.44043, 326.326172, 97.0, 22.0 ],
									"presentation_rect" : [ 87.380859, 284.326172, 97.0, 22.0 ],
									"style" : "",
									"text" : "r ---presetActual"
								}

							}
, 							{
								"box" : 								{
									"id" : "obj-818",
									"maxclass" : "message",
									"numinlets" : 2,
									"numoutlets" : 1,
									"outlettype" : [ "" ],
									"patching_rect" : [ 113.0, 310.675049, 29.5, 22.0 ],
									"presentation_rect" : [ 100.795898, 168.675049, 29.5, 22.0 ],
									"style" : "",
									"text" : "2"
								}

							}
, 							{
								"box" : 								{
									"id" : "obj-816",
									"maxclass" : "message",
									"numinlets" : 2,
									"numoutlets" : 1,
									"outlettype" : [ "" ],
									"patching_rect" : [ 52.0, 310.675049, 29.5, 22.0 ],
									"presentation_rect" : [ 50.0, 159.675049, 29.5, 22.0 ],
									"style" : "",
									"text" : "1"
								}

							}
, 							{
								"box" : 								{
									"id" : "obj-814",
									"maxclass" : "newobj",
									"numinlets" : 2,
									"numoutlets" : 2,
									"outlettype" : [ "bang", "" ],
									"patching_rect" : [ 52.0, 265.675049, 80.0, 22.0 ],
									"presentation_rect" : [ 61.084229, 112.675049, 36.0, 22.0 ],
									"style" : "",
									"text" : "sel 0"
								}

							}
, 							{
								"box" : 								{
									"id" : "obj-810",
									"maxclass" : "newobj",
									"numinlets" : 3,
									"numoutlets" : 1,
									"outlettype" : [ "" ],
									"patching_rect" : [ 52.0, 376.326172, 361.880859, 22.0 ],
									"presentation_rect" : [ 54.25, 317.826172, 71.0, 22.0 ],
									"style" : "",
									"text" : "switch"
								}

							}
, 							{
								"box" : 								{
									"id" : "obj-800",
									"maxclass" : "newobj",
									"numinlets" : 1,
									"numoutlets" : 3,
									"outlettype" : [ "", "int", "int" ],
									"patching_rect" : [ 394.880859, 337.326172, 50.0, 22.0 ],
									"presentation_rect" : [ 178.880859, 275.326172, 50.0, 22.0 ],
									"style" : "",
									"text" : "change"
								}

							}
, 							{
								"box" : 								{
									"color" : [ 0.529412, 0.854902, 0.956863, 1.0 ],
									"id" : "obj-772",
									"maxclass" : "newobj",
									"numinlets" : 0,
									"numoutlets" : 1,
									"outlettype" : [ "" ],
									"patching_rect" : [ 435.380859, 260.326172, 97.0, 22.0 ],
									"presentation_rect" : [ 219.380859, 187.326172, 97.0, 22.0 ],
									"style" : "",
									"text" : "r ---presetActual"
								}

							}
, 							{
								"box" : 								{
									"id" : "obj-769",
									"maxclass" : "newobj",
									"numinlets" : 2,
									"numoutlets" : 1,
									"outlettype" : [ "int" ],
									"patching_rect" : [ 394.880859, 301.326172, 59.5, 22.0 ],
									"presentation_rect" : [ 178.880859, 224.326172, 59.5, 22.0 ],
									"style" : "",
									"text" : "int"
								}

							}
, 							{
								"box" : 								{
									"id" : "obj-203",
									"maxclass" : "newobj",
									"numinlets" : 1,
									"numoutlets" : 1,
									"outlettype" : [ "" ],
									"patcher" : 									{
										"fileversion" : 1,
										"appversion" : 										{
											"major" : 7,
											"minor" : 3,
											"revision" : 4,
											"architecture" : "x64",
											"modernui" : 1
										}
,
										"rect" : [ 59.0, 103.0, 640.0, 480.0 ],
										"bglocked" : 0,
										"openinpresentation" : 0,
										"default_fontsize" : 12.0,
										"default_fontface" : 0,
										"default_fontname" : "Arial",
										"gridonopen" : 1,
										"gridsize" : [ 15.0, 15.0 ],
										"gridsnaponopen" : 1,
										"objectsnaponopen" : 1,
										"statusbarvisible" : 2,
										"toolbarvisible" : 1,
										"lefttoolbarpinned" : 0,
										"toptoolbarpinned" : 0,
										"righttoolbarpinned" : 0,
										"bottomtoolbarpinned" : 0,
										"toolbars_unpinned_last_save" : 0,
										"tallnewobj" : 0,
										"boxanimatetime" : 200,
										"enablehscroll" : 1,
										"enablevscroll" : 1,
										"devicewidth" : 0.0,
										"description" : "",
										"digest" : "",
										"tags" : "",
										"style" : "",
										"subpatcher_template" : "",
										"boxes" : [ 											{
												"box" : 												{
													"fontname" : "Arial Bold",
													"fontsize" : 10.0,
													"id" : "obj-207",
													"maxclass" : "newobj",
													"numinlets" : 2,
													"numoutlets" : 1,
													"outlettype" : [ "bang" ],
													"patching_rect" : [ 214.496826, 153.649902, 191.0, 20.0 ],
													"presentation" : 1,
													"presentation_rect" : [ 1137.67749, 1060.25, 191.0, 20.0 ],
													"style" : "",
													"text" : "metro 4.0.0 @quantize 4.0.0 @active 1"
												}

											}
, 											{
												"box" : 												{
													"fontname" : "Arial Bold",
													"fontsize" : 10.0,
													"id" : "obj-208",
													"maxclass" : "newobj",
													"numinlets" : 2,
													"numoutlets" : 1,
													"outlettype" : [ "bang" ],
													"patching_rect" : [ 160.033691, 128.0, 191.0, 20.0 ],
													"presentation" : 1,
													"presentation_rect" : [ 1083.214355, 1034.600098, 191.0, 20.0 ],
													"style" : "",
													"text" : "metro 2.0.0 @quantize 2.0.0 @active 1"
												}

											}
, 											{
												"box" : 												{
													"fontname" : "Arial Bold",
													"fontsize" : 10.0,
													"id" : "obj-296",
													"maxclass" : "newobj",
													"numinlets" : 2,
													"numoutlets" : 1,
													"outlettype" : [ "bang" ],
													"patching_rect" : [ 104.570801, 100.0, 191.0, 20.0 ],
													"presentation" : 1,
													"presentation_rect" : [ 1027.751465, 1006.600098, 191.0, 20.0 ],
													"style" : "",
													"text" : "metro 1.0.0 @quantize 1.0.0 @active 1"
												}

											}
, 											{
												"box" : 												{
													"fontname" : "Arial Bold",
													"fontsize" : 10.0,
													"id" : "obj-416",
													"maxclass" : "newobj",
													"numinlets" : 4,
													"numoutlets" : 1,
													"outlettype" : [ "" ],
													"patching_rect" : [ 50.0, 177.899902, 184.095337, 20.0 ],
													"presentation" : 1,
													"presentation_rect" : [ 973.180664, 1084.5, 184.095337, 20.0 ],
													"style" : "",
													"text" : "switch 3"
												}

											}
, 											{
												"box" : 												{
													"comment" : "",
													"id" : "obj-198",
													"index" : 1,
													"maxclass" : "inlet",
													"numinlets" : 0,
													"numoutlets" : 1,
													"outlettype" : [ "" ],
													"patching_rect" : [ 50.0, 40.0, 30.0, 30.0 ],
													"presentation_rect" : [ 50.0, 40.0, 30.0, 30.0 ],
													"style" : ""
												}

											}
, 											{
												"box" : 												{
													"comment" : "",
													"id" : "obj-200",
													"index" : 1,
													"maxclass" : "outlet",
													"numinlets" : 1,
													"numoutlets" : 0,
													"patching_rect" : [ 50.0, 257.899902, 30.0, 30.0 ],
													"presentation_rect" : [ 50.0, 257.899902, 30.0, 30.0 ],
													"style" : ""
												}

											}
 ],
										"lines" : [ 											{
												"patchline" : 												{
													"destination" : [ "obj-416", 0 ],
													"source" : [ "obj-198", 0 ]
												}

											}
, 											{
												"patchline" : 												{
													"destination" : [ "obj-416", 3 ],
													"midpoints" : [ 223.996826, 172.899902, 224.595337, 172.899902 ],
													"source" : [ "obj-207", 0 ]
												}

											}
, 											{
												"patchline" : 												{
													"destination" : [ "obj-416", 2 ],
													"midpoints" : [ 169.533691, 172.899902, 169.563558, 172.899902 ],
													"source" : [ "obj-208", 0 ]
												}

											}
, 											{
												"patchline" : 												{
													"destination" : [ "obj-416", 1 ],
													"midpoints" : [ 114.070801, 172.899902, 114.531779, 172.899902 ],
													"source" : [ "obj-296", 0 ]
												}

											}
, 											{
												"patchline" : 												{
													"destination" : [ "obj-200", 0 ],
													"source" : [ "obj-416", 0 ]
												}

											}
 ]
									}
,
									"patching_rect" : [ 394.880859, 214.675049, 96.0, 22.0 ],
									"presentation_rect" : [ 178.880859, 100.0, 96.0, 22.0 ],
									"saved_object_attributes" : 									{
										"description" : "",
										"digest" : "",
										"globalpatchername" : "",
										"style" : "",
										"tags" : ""
									}
,
									"style" : "",
									"text" : "p tempoChange"
								}

							}
, 							{
								"box" : 								{
									"bgcolor" : [ 0.411765, 0.411765, 0.411765, 0.0 ],
									"blinkcolor" : [ 0.611765, 0.611765, 0.968627, 1.0 ],
									"id" : "obj-201",
									"maxclass" : "button",
									"numinlets" : 1,
									"numoutlets" : 1,
									"outlettype" : [ "bang" ],
									"outlinecolor" : [ 0.611765, 0.611765, 0.968627, 1.0 ],
									"patching_rect" : [ 394.880859, 260.326172, 24.0, 24.0 ],
									"presentation_rect" : [ 178.880859, 143.0, 24.0, 24.0 ],
									"style" : ""
								}

							}
, 							{
								"box" : 								{
									"comment" : "",
									"id" : "obj-198",
									"index" : 1,
									"maxclass" : "inlet",
									"numinlets" : 0,
									"numoutlets" : 1,
									"outlettype" : [ "" ],
									"patching_rect" : [ 246.982544, 76.0, 30.0, 30.0 ],
									"presentation_rect" : [ 113.982544, 40.0, 30.0, 30.0 ],
									"style" : ""
								}

							}
, 							{
								"box" : 								{
									"comment" : "",
									"id" : "obj-200",
									"index" : 1,
									"maxclass" : "outlet",
									"numinlets" : 1,
									"numoutlets" : 0,
									"patching_rect" : [ 52.0, 414.826172, 30.0, 30.0 ],
									"presentation_rect" : [ 54.25, 399.826172, 30.0, 30.0 ],
									"style" : ""
								}

							}
 ],
						"lines" : [ 							{
								"patchline" : 								{
									"color" : [ 0.529412, 0.854902, 0.956863, 1.0 ],
									"destination" : [ "obj-810", 1 ],
									"source" : [ "obj-1", 0 ]
								}

							}
, 							{
								"patchline" : 								{
									"destination" : [ "obj-2", 0 ],
									"source" : [ "obj-198", 0 ]
								}

							}
, 							{
								"patchline" : 								{
									"color" : [ 0.403922, 0.662745, 0.976471, 1.0 ],
									"destination" : [ "obj-203", 0 ],
									"midpoints" : [ 266.982544, 193.837524, 404.380859, 193.837524 ],
									"source" : [ "obj-2", 1 ]
								}

							}
, 							{
								"patchline" : 								{
									"color" : [ 0.403922, 0.662745, 0.976471, 1.0 ],
									"destination" : [ "obj-814", 0 ],
									"midpoints" : [ 256.482544, 192.0, 61.5, 192.0 ],
									"source" : [ "obj-2", 0 ]
								}

							}
, 							{
								"patchline" : 								{
									"color" : [ 0.611765, 0.611765, 0.968627, 1.0 ],
									"destination" : [ "obj-769", 0 ],
									"source" : [ "obj-201", 0 ]
								}

							}
, 							{
								"patchline" : 								{
									"color" : [ 0.611765, 0.611765, 0.968627, 1.0 ],
									"destination" : [ "obj-201", 0 ],
									"source" : [ "obj-203", 0 ]
								}

							}
, 							{
								"patchline" : 								{
									"color" : [ 0.611765, 0.611765, 0.968627, 1.0 ],
									"destination" : [ "obj-800", 0 ],
									"source" : [ "obj-769", 0 ]
								}

							}
, 							{
								"patchline" : 								{
									"color" : [ 0.529412, 0.854902, 0.956863, 1.0 ],
									"destination" : [ "obj-769", 1 ],
									"source" : [ "obj-772", 0 ]
								}

							}
, 							{
								"patchline" : 								{
									"color" : [ 0.611765, 0.611765, 0.968627, 1.0 ],
									"destination" : [ "obj-810", 2 ],
									"source" : [ "obj-800", 0 ]
								}

							}
, 							{
								"patchline" : 								{
									"destination" : [ "obj-200", 0 ],
									"source" : [ "obj-810", 0 ]
								}

							}
, 							{
								"patchline" : 								{
									"color" : [ 0.529412, 0.854902, 0.956863, 1.0 ],
									"destination" : [ "obj-816", 0 ],
									"source" : [ "obj-814", 0 ]
								}

							}
, 							{
								"patchline" : 								{
									"color" : [ 0.611765, 0.611765, 0.968627, 1.0 ],
									"destination" : [ "obj-818", 0 ],
									"source" : [ "obj-814", 1 ]
								}

							}
, 							{
								"patchline" : 								{
									"color" : [ 0.529412, 0.854902, 0.956863, 1.0 ],
									"destination" : [ "obj-810", 0 ],
									"source" : [ "obj-816", 0 ]
								}

							}
, 							{
								"patchline" : 								{
									"color" : [ 0.611765, 0.611765, 0.968627, 1.0 ],
									"destination" : [ "obj-810", 0 ],
									"midpoints" : [ 122.5, 351.0, 61.5, 351.0 ],
									"source" : [ "obj-818", 0 ]
								}

							}
 ]
					}
,
					"patching_rect" : [ 201.544739, 277.901123, 93.0, 22.0 ],
					"presentation_rect" : [ 881.39624, 1500.651123, 93.0, 22.0 ],
					"saved_object_attributes" : 					{
						"description" : "",
						"digest" : "",
						"globalpatchername" : "",
						"style" : "",
						"tags" : ""
					}
,
					"style" : "",
					"text" : "p tempochange"
				}

			}
, 			{
				"box" : 				{
					"id" : "obj-5",
					"maxclass" : "comment",
					"numinlets" : 1,
					"numoutlets" : 0,
					"patching_rect" : [ 238.116974, 212.0, 48.0, 20.0 ],
					"style" : "",
					"text" : "<-- Init\n"
				}

			}
, 			{
				"box" : 				{
					"id" : "obj-3",
					"maxclass" : "button",
					"numinlets" : 1,
					"numoutlets" : 1,
					"outlettype" : [ "bang" ],
					"patching_rect" : [ 201.544739, 210.0, 24.0, 24.0 ],
					"style" : ""
				}

			}
, 			{
				"box" : 				{
					"id" : "obj-1",
					"maxclass" : "newobj",
					"numinlets" : 1,
					"numoutlets" : 1,
					"outlettype" : [ "" ],
					"patching_rect" : [ 79.0, 336.0, 119.0, 22.0 ],
					"saved_object_attributes" : 					{
						"client_rect" : [ 4, 45, 358, 173 ],
						"parameter_enable" : 0,
						"storage_rect" : [ 583, 69, 1034, 197 ]
					}
,
					"style" : "",
					"text" : "pattrstorage nombre",
					"varname" : "nombre"
				}

			}
, 			{
				"box" : 				{
					"id" : "obj-770",
					"maxclass" : "newobj",
					"numinlets" : 1,
					"numoutlets" : 0,
					"patching_rect" : [ 179.0, 130.901123, 99.0, 22.0 ],
					"presentation_rect" : [ 755.22644, 1500.651123, 99.0, 22.0 ],
					"style" : "",
					"text" : "s ---presetActual"
				}

			}
, 			{
				"box" : 				{
					"activebgcolor" : [ 0.0, 0.0, 0.0, 0.0 ],
					"annotation" : "Sync to downbeat every [n] measures.",
					"bordercolor" : [ 1.0, 1.0, 1.0, 0.2 ],
					"hltcolor" : [ 0.278431, 0.839216, 1.0, 1.0 ],
					"id" : "obj-415",
					"maxclass" : "live.menu",
					"numinlets" : 1,
					"numoutlets" : 3,
					"outlettype" : [ "", "", "float" ],
					"parameter_enable" : 1,
					"patching_rect" : [ 201.544739, 247.425049, 59.14447, 15.0 ],
					"presentation" : 1,
					"presentation_rect" : [ 403.734222, 343.281769, 41.144463, 15.0 ],
					"saved_attribute_attributes" : 					{
						"valueof" : 						{
							"parameter_longname" : "Reset[4]",
							"parameter_shortname" : "Reset",
							"parameter_type" : 2,
							"parameter_enum" : [ "Free", "1", "2", "4" ],
							"parameter_initial" : [ 0.0 ],
							"parameter_invisible" : 2
						}

					}
,
					"textcolor" : [ 1.0, 1.0, 1.0, 0.6 ],
					"tricolor" : [ 1.0, 1.0, 1.0, 0.6 ],
					"varname" : "Reset"
				}

			}
, 			{
				"box" : 				{
					"activedialcolor" : [ 0.403922, 0.662745, 0.976471, 1.0 ],
					"activeneedlecolor" : [ 0.364706, 0.470588, 0.917647, 1.0 ],
					"focusbordercolor" : [ 0.0, 0.0, 0.0, 0.0 ],
					"id" : "obj-52",
					"maxclass" : "live.dial",
					"numinlets" : 1,
					"numoutlets" : 2,
					"outlettype" : [ "", "float" ],
					"parameter_enable" : 1,
					"patching_rect" : [ 79.0, 9.0, 44.0, 47.0 ],
					"presentation" : 1,
					"presentation_rect" : [ 400.878693, 364.5, 44.0, 47.0 ],
					"saved_attribute_attributes" : 					{
						"valueof" : 						{
							"parameter_linknames" : 1,
							"parameter_longname" : "Preset",
							"parameter_shortname" : "Preset",
							"parameter_type" : 1,
							"parameter_mmin" : 1.0,
							"parameter_mmax" : 16.0,
							"parameter_unitstyle" : 0
						}

					}
,
					"textcolor" : [ 0.403922, 0.662745, 0.976471, 1.0 ],
					"varname" : "Preset"
				}

			}
, 			{
				"box" : 				{
					"id" : "obj-190",
					"maxclass" : "newobj",
					"numinlets" : 1,
					"numoutlets" : 1,
					"outlettype" : [ "" ],
					"patching_rect" : [ 79.0, 130.901123, 85.0, 22.0 ],
					"presentation_rect" : [ 664.851501, 1500.651123, 85.0, 22.0 ],
					"style" : "",
					"text" : "prepend store"
				}

			}
, 			{
				"box" : 				{
					"id" : "obj-191",
					"maxclass" : "newobj",
					"numinlets" : 1,
					"numoutlets" : 2,
					"outlettype" : [ "", "" ],
					"patching_rect" : [ 79.0, 76.25, 119.0, 22.0 ],
					"presentation_rect" : [ 664.851501, 1454.0, 107.166687, 22.0 ],
					"saved_object_attributes" : 					{
						"filename" : "psystem.js",
						"parameter_enable" : 0
					}
,
					"style" : "",
					"text" : "js psystem.js"
				}

			}
 ],
		"lines" : [ 			{
				"patchline" : 				{
					"destination" : [ "obj-1", 0 ],
					"source" : [ "obj-19", 0 ]
				}

			}
, 			{
				"patchline" : 				{
					"destination" : [ "obj-20", 0 ],
					"source" : [ "obj-190", 0 ]
				}

			}
, 			{
				"patchline" : 				{
					"destination" : [ "obj-190", 0 ],
					"source" : [ "obj-191", 0 ]
				}

			}
, 			{
				"patchline" : 				{
					"destination" : [ "obj-6", 1 ],
					"order" : 0,
					"source" : [ "obj-191", 1 ]
				}

			}
, 			{
				"patchline" : 				{
					"destination" : [ "obj-770", 0 ],
					"order" : 1,
					"source" : [ "obj-191", 1 ]
				}

			}
, 			{
				"patchline" : 				{
					"destination" : [ "obj-1", 0 ],
					"source" : [ "obj-2", 0 ]
				}

			}
, 			{
				"patchline" : 				{
					"destination" : [ "obj-19", 1 ],
					"source" : [ "obj-20", 1 ]
				}

			}
, 			{
				"patchline" : 				{
					"destination" : [ "obj-21", 0 ],
					"source" : [ "obj-20", 0 ]
				}

			}
, 			{
				"patchline" : 				{
					"destination" : [ "obj-19", 0 ],
					"source" : [ "obj-21", 0 ]
				}

			}
, 			{
				"patchline" : 				{
					"destination" : [ "obj-415", 0 ],
					"source" : [ "obj-3", 0 ]
				}

			}
, 			{
				"patchline" : 				{
					"destination" : [ "obj-2", 0 ],
					"source" : [ "obj-415", 0 ]
				}

			}
, 			{
				"patchline" : 				{
					"destination" : [ "obj-191", 0 ],
					"source" : [ "obj-52", 0 ]
				}

			}
 ],
		"parameters" : 		{
			"obj-52" : [ "Preset", "Preset", 0 ],
			"obj-415" : [ "Reset[4]", "Reset", 0 ]
		}
,
		"dependency_cache" : [ 			{
				"name" : "psystem.js",
				"bootpath" : "~/Developement/Max/atk-tools",
				"patcherrelativepath" : ".",
				"type" : "TEXT",
				"implicit" : 1
			}
 ],
		"autosave" : 0,
		"styles" : [ 			{
				"name" : "AudioStatus_Menu",
				"default" : 				{
					"bgfillcolor" : 					{
						"type" : "color",
						"color" : [ 0.294118, 0.313726, 0.337255, 1 ],
						"color1" : [ 0.454902, 0.462745, 0.482353, 0.0 ],
						"color2" : [ 0.290196, 0.309804, 0.301961, 1.0 ],
						"angle" : 270.0,
						"proportion" : 0.39,
						"autogradient" : 0
					}

				}
,
				"parentstyle" : "",
				"multi" : 0
			}
, 			{
				"name" : "ComenAtek",
				"default" : 				{
					"fontsize" : [ 14.0 ],
					"fontname" : [ "MarkOT-Medium" ],
					"textcolor" : [ 0.129412, 0.298039, 0.564706, 1.0 ]
				}
,
				"parentstyle" : "",
				"multi" : 0
			}
, 			{
				"name" : "Jamoma_highlighted_orange",
				"default" : 				{
					"accentcolor" : [ 1.0, 0.5, 0.0, 1.0 ]
				}
,
				"parentstyle" : "",
				"multi" : 0
			}
, 			{
				"name" : "animatekComment",
				"default" : 				{
					"textjustification" : [ 1 ],
					"fontsize" : [ 13.0 ],
					"fontname" : [ "MarkOT-Medium" ],
					"textcolor" : [ 0.423529, 0.898039, 0.694118, 1.0 ]
				}
,
				"parentstyle" : "",
				"multi" : 0
			}
, 			{
				"name" : "ksliderWhite",
				"default" : 				{
					"color" : [ 1.0, 1.0, 1.0, 1.0 ]
				}
,
				"parentstyle" : "",
				"multi" : 0
			}
, 			{
				"name" : "multisliderBlue&Yellow",
				"default" : 				{
					"bgcolor" : [ 0.317647, 0.654902, 0.976471, 0.79 ],
					"color" : [ 0.960784, 0.867826, 0.084811, 1.0 ]
				}
,
				"parentstyle" : "",
				"multi" : 0
			}
, 			{
				"name" : "newobj001",
				"default" : 				{
					"bgcolor" : [ 0.329412, 0.329412, 0.329412, 1.0 ],
					"textcolor_inverse" : [ 0.184314, 0.192157, 0.203922, 1.0 ],
					"fontsize" : [ 24.0 ],
					"fontname" : [ "Arial Bold" ],
					"accentcolor" : [ 0.184314, 0.192157, 0.203922, 1.0 ]
				}
,
				"parentstyle" : "",
				"multi" : 0
			}
, 			{
				"name" : "newobjBlue-1",
				"default" : 				{
					"accentcolor" : [ 0.317647, 0.654902, 0.976471, 1.0 ]
				}
,
				"parentstyle" : "",
				"multi" : 0
			}
, 			{
				"name" : "newobjBrown-1",
				"default" : 				{
					"accentcolor" : [ 0.654902, 0.572549, 0.376471, 1.0 ]
				}
,
				"parentstyle" : "",
				"multi" : 0
			}
, 			{
				"name" : "newobjCyan-1",
				"default" : 				{
					"accentcolor" : [ 0.029546, 0.773327, 0.821113, 1.0 ]
				}
,
				"parentstyle" : "",
				"multi" : 0
			}
, 			{
				"name" : "newobjGold-1",
				"default" : 				{
					"accentcolor" : [ 0.764706, 0.592157, 0.101961, 1.0 ]
				}
,
				"parentstyle" : "",
				"multi" : 0
			}
, 			{
				"name" : "newobjGreen-1",
				"default" : 				{
					"accentcolor" : [ 0.0, 0.533333, 0.168627, 1.0 ]
				}
,
				"parentstyle" : "",
				"multi" : 0
			}
, 			{
				"name" : "newobjMagenta-1",
				"default" : 				{
					"accentcolor" : [ 0.840663, 0.060168, 0.769195, 1.0 ]
				}
,
				"parentstyle" : "",
				"multi" : 0
			}
, 			{
				"name" : "newobjRed-1",
				"default" : 				{
					"accentcolor" : [ 0.784314, 0.145098, 0.023529, 1.0 ]
				}
,
				"parentstyle" : "",
				"multi" : 0
			}
, 			{
				"name" : "newobjYellow-1",
				"default" : 				{
					"fontsize" : [ 12.059008 ],
					"accentcolor" : [ 0.82517, 0.78181, 0.059545, 1.0 ]
				}
,
				"parentstyle" : "",
				"multi" : 0
			}
, 			{
				"name" : "numberGold-1",
				"default" : 				{
					"accentcolor" : [ 0.764706, 0.592157, 0.101961, 1.0 ]
				}
,
				"parentstyle" : "",
				"multi" : 0
			}
, 			{
				"name" : "rsliderGold",
				"default" : 				{
					"bgcolor" : [ 0.764706, 0.592157, 0.101961, 1.0 ],
					"color" : [ 0.646639, 0.821777, 0.854593, 1.0 ]
				}
,
				"parentstyle" : "",
				"multi" : 0
			}
 ]
	}

}
